# File created by Blade
# Date/Time:  Mon Sep 22 17:23:16 2014
# Frame Rate: 120.000 fps
#------------------------------------------------------
:FULLY-SPECIFIED
:DEGREES
2977
root 0.711771 38.801194 0.187384 11.083749 -19.021787 -35.780736
RightUpLeg -14.458876 -20.503825 -30.179988
RightLeg 105.621937 -0.000000 -0.000000
RightFoot 15.864784 -17.327232 14.339153
RightToeBase -2.717612 -0.000000 0.000000
LeftUpLeg 1.424368 4.191254 26.703942
LeftLeg 16.899704 -0.000000 -0.000000
LeftFoot -24.243692 25.888842 -16.219919
LeftToeBase 2.681627 -0.000000 -0.000000
Spine 7.464732 -9.257421 6.648407
RightShoulder -3.052793 -33.804277 -4.861425
RightArm 22.175602 -20.098611 60.818575
RightForeArm -187.099195 -0.000000 106.198002
RightHand 94.602040 -0.000000 -167.336086
RightHandThumb1 -24.326973 -0.000000 -32.862282
LeftShoulder -20.372406 32.178498 6.984334
LeftArm 60.689804 -29.006469 -61.934681
LeftForeArm 59.036631 -0.000000 122.945484
LeftHand -26.763681 -0.000000 -20.529180
LeftHandThumb1 -26.253704 0.000000 33.147579
Head 7.604309 25.962348 30.912748
2978
root 0.776221 38.805028 0.215145 11.004515 -19.068678 -35.735322
RightUpLeg -14.238972 -20.698324 -30.638285
RightLeg 101.865442 -0.000000 -0.000000
RightFoot 15.872890 -18.191370 14.696364
RightToeBase -2.081390 -0.000000 0.000000
LeftUpLeg 1.628326 4.153611 26.540492
LeftLeg 16.643557 -0.000000 -0.000000
LeftFoot -24.121866 25.977153 -16.161738
LeftToeBase 2.600563 -0.000000 -0.000000
Spine 7.658957 -9.336674 6.799719
RightShoulder -3.065417 -33.783545 -4.935711
RightArm 21.938391 -19.890635 60.896295
RightForeArm -187.083772 -0.000000 106.094517
RightHand 94.642272 -0.000000 -167.233953
RightHandThumb1 -24.326973 -0.000000 -32.862282
LeftShoulder -20.370440 32.176134 6.959322
LeftArm 60.579345 -28.837196 -62.134927
LeftForeArm 59.144832 -0.000000 122.967857
LeftHand -26.777052 -0.000000 -20.675813
LeftHandThumb1 -26.253704 0.000000 33.147579
Head 7.403472 26.214042 30.653924
2979
root 0.838656 38.811936 0.244687 10.959651 -19.161032 -35.738468
RightUpLeg -13.956648 -20.785420 -31.022259
RightLeg 97.815453 -0.000000 -0.000000
RightFoot 15.826896 -19.242783 15.092075
RightToeBase -2.076897 -0.000000 0.000000
LeftUpLeg 1.855225 4.176363 26.418812
LeftLeg 16.371198 -0.000000 -0.000000
LeftFoot -24.001001 26.055948 -16.138876
LeftToeBase 2.606747 -0.000000 -0.000000
Spine 7.803666 -9.242132 6.996393
RightShoulder -3.187061 -33.849983 -4.922364
RightArm 21.731872 -19.628997 60.955915
RightForeArm -186.908298 -0.000000 105.995894
RightHand 94.683435 -0.000000 -167.385708
RightHandThumb1 -24.326973 -0.000000 -32.862282
LeftShoulder -20.250067 32.183872 7.022462
LeftArm 60.493726 -28.607155 -62.321806
LeftForeArm 59.217663 -0.000000 122.955029
LeftHand -26.710068 -0.000000 -20.744804
LeftHandThumb1 -26.253704 0.000000 33.147579
Head 7.219409 26.298276 30.447805
2980
root 0.896965 38.824951 0.283046 10.955034 -19.133949 -35.862272
RightUpLeg -13.440485 -20.900956 -31.277263
RightLeg 93.408049 -0.000000 -0.000000
RightFoot 15.676779 -20.570465 15.696582
RightToeBase -1.832614 -0.000000 0.000000
LeftUpLeg 2.056019 4.182967 26.452062
LeftLeg 16.074366 -0.000000 -0.000000
LeftFoot -23.814876 26.040968 -15.970394
LeftToeBase 2.517655 -0.000000 -0.000000
Spine 7.934150 -9.503258 7.368977
RightShoulder -3.066740 -33.875574 -5.087134
RightArm 21.539923 -19.418150 60.938584
RightForeArm -186.892976 -0.000000 105.908863
RightHand 94.661877 -0.000000 -167.366576
RightHandThumb1 -24.326973 -0.000000 -32.862282
LeftShoulder -20.489183 32.209970 6.797963
LeftArm 60.411104 -28.381437 -62.431381
LeftForeArm 59.255407 -0.000000 122.948254
LeftHand -26.677880 -0.000000 -20.791651
LeftHandThumb1 -26.253704 0.000000 33.147579
Head 7.132027 26.621830 30.202041
2981
root 0.946551 38.847950 0.325970 10.907703 -19.103870 -36.160156
RightUpLeg -12.702274 -20.877755 -31.352443
RightLeg 88.684163 -0.000000 -0.000000
RightFoot 15.314591 -22.220058 16.492837
RightToeBase -1.286066 -0.000000 0.000000
LeftUpLeg 2.404655 4.156254 26.673591
LeftLeg 15.721776 -0.000000 -0.000000
LeftFoot -23.673342 26.033000 -15.910653
LeftToeBase 2.445460 -0.000000 -0.000000
Spine 8.155266 -9.565125 7.931631
RightShoulder -3.095915 -33.874393 -5.163026
RightArm 21.285582 -19.164712 60.925623
RightForeArm -186.924404 -0.000000 105.845209
RightHand 94.699128 0.000000 -167.057688
RightHandThumb1 -24.326973 -0.000000 -32.862282
LeftShoulder -20.449705 32.219365 6.715382
LeftArm 60.319740 -28.145288 -62.562141
LeftForeArm 59.404662 -0.000000 122.962559
LeftHand -26.634836 -0.000000 -20.926889
LeftHandThumb1 -26.253704 0.000000 33.147579
Head 7.029319 26.776297 29.980366
2982
root 1.000980 38.866352 0.364717 10.974196 -19.162028 -36.368465
RightUpLeg -12.050703 -20.821573 -31.466440
RightLeg 83.749667 -0.000000 -0.000000
RightFoot 14.748447 -24.250647 17.433390
RightToeBase -0.656596 -0.000000 0.000000
LeftUpLeg 2.677433 4.208248 26.765235
LeftLeg 15.320588 -0.000000 -0.000000
LeftFoot -23.462230 26.131342 -15.781391
LeftToeBase 2.314747 -0.000000 -0.000000
Spine 8.184704 -9.613551 8.353643
RightShoulder -3.044388 -33.929693 -5.219529
RightArm 21.066028 -18.920283 60.879131
RightForeArm -186.926541 0.000000 105.769849
RightHand 94.639449 -0.000000 -167.327917
RightHandThumb1 -24.326973 -0.000000 -32.862282
LeftShoulder -20.506241 32.373049 6.619902
LeftArm 60.272377 -27.957183 -62.722326
LeftForeArm 59.439437 -0.000000 122.999553
LeftHand -26.581551 -0.000000 -21.123601
LeftHandThumb1 -26.253704 0.000000 33.147579
Head 7.097660 26.927131 29.945043
2983
root 1.056150 38.886196 0.400434 11.029818 -19.244115 -36.567245
RightUpLeg -11.297892 -20.678433 -31.569806
RightLeg 78.597422 -0.000000 -0.000000
RightFoot 13.804436 -26.586314 18.682023
RightToeBase 0.132788 -0.000000 -0.000000
LeftUpLeg 2.995947 4.289897 26.847033
LeftLeg 14.857698 -0.000000 -0.000000
LeftFoot -23.265742 26.203595 -15.711084
LeftToeBase 2.253079 -0.000000 -0.000000
Spine 8.257152 -9.545396 8.749177
RightShoulder -3.133697 -33.949057 -5.179217
RightArm 20.861632 -18.715206 60.829289
RightForeArm -186.857109 -0.000000 105.686406
RightHand 94.656568 0.000000 -167.245927
RightHandThumb1 -24.326973 -0.000000 -32.862282
LeftShoulder -20.473540 32.377295 6.598096
LeftArm 60.132900 -27.727891 -62.761378
LeftForeArm 59.477535 0.000000 123.035552
LeftHand -26.636346 -0.000000 -21.244627
LeftHandThumb1 -26.253704 0.000000 33.147579
Head 7.091932 27.163960 30.035306
2984
root 1.110044 38.907396 0.428327 11.242168 -19.389078 -36.772120
RightUpLeg -10.663746 -20.467607 -31.577393
RightLeg 73.303059 -0.000000 -0.000000
RightFoot 12.551606 -29.186077 20.135249
RightToeBase 1.033872 -0.000000 -0.000000
LeftUpLeg 3.209789 4.473464 26.917851
LeftLeg 14.376227 -0.000000 -0.000000
LeftFoot -23.073731 26.274372 -15.694207
LeftToeBase 2.218016 -0.000000 -0.000000
Spine 8.123155 -9.418256 9.110041
RightShoulder -3.219005 -34.045729 -5.066858
RightArm 20.726075 -18.517255 60.680869
RightForeArm -186.915444 0.000000 105.592621
RightHand 94.642918 -0.000000 -167.265773
RightHandThumb1 -24.326973 -0.000000 -32.862282
LeftShoulder -20.524683 32.562813 6.515616
LeftArm 60.133129 -27.538949 -62.796383
LeftForeArm 59.579384 -0.000000 123.063335
LeftHand -26.684129 -0.000000 -21.258757
LeftHandThumb1 -26.253704 0.000000 33.147579
Head 7.184076 27.216887 30.173637
2985
root 1.163857 38.926826 0.452962 11.498414 -19.522969 -36.949815
RightUpLeg -10.000734 -20.277053 -31.575043
RightLeg 67.915626 -0.000000 -0.000000
RightFoot 11.125617 -31.853803 21.475669
RightToeBase 1.870998 -0.000000 -0.000000
LeftUpLeg 3.382705 4.629111 26.956096
LeftLeg 13.856069 -0.000000 -0.000000
LeftFoot -22.875471 26.379391 -15.698113
LeftToeBase 2.179183 -0.000000 -0.000000
Spine 7.913057 -9.347878 9.429790
RightShoulder -3.245625 -34.122578 -4.973270
RightArm 20.572465 -18.353373 60.558628
RightForeArm -186.962518 0.000000 105.504969
RightHand 94.646166 -0.000000 -167.253229
RightHandThumb1 -24.326973 -0.000000 -32.862282
LeftShoulder -20.589455 32.714761 6.431128
LeftArm 60.036758 -27.418615 -62.794592
LeftForeArm 59.622639 0.000000 123.107563
LeftHand -26.667607 0.000000 -21.204831
LeftHandThumb1 -26.253704 0.000000 33.147579
Head 7.368979 27.313187 30.427269
2986
root 1.209194 38.949789 0.476012 11.787018 -19.724319 -37.153437
RightUpLeg -9.321752 -19.950119 -31.532497
RightLeg 62.455035 -0.000000 -0.000000
RightFoot 9.601725 -34.415027 22.648368
RightToeBase 2.621441 -0.000000 -0.000000
LeftUpLeg 3.602668 4.858970 27.021069
LeftLeg 13.288252 -0.000000 -0.000000
LeftFoot -22.679118 26.457641 -15.779322
LeftToeBase 2.110574 -0.000000 -0.000000
Spine 7.675580 -9.210236 9.702016
RightShoulder -3.280102 -34.245965 -4.811197
RightArm 20.477925 -18.185522 60.399657
RightForeArm -186.980905 0.000000 105.422563
RightHand 94.650780 0.000000 -167.296470
RightHandThumb1 -24.326973 -0.000000 -32.862282
LeftShoulder -20.691539 32.877642 6.379597
LeftArm 59.938042 -27.249858 -62.779079
LeftForeArm 59.805005 -0.000000 123.195002
LeftHand -26.535252 -0.000000 -21.392959
LeftHandThumb1 -26.253704 0.000000 33.147579
Head 7.538305 27.199455 30.642703
2987
root 1.253296 38.969431 0.488295 12.134243 -19.912865 -37.305930
RightUpLeg -8.658427 -19.571328 -31.528302
RightLeg 56.988433 -0.000000 -0.000000
RightFoot 8.167733 -36.728592 23.618551
RightToeBase 3.742950 -0.000000 -0.000000
LeftUpLeg 3.715296 5.097749 27.042565
LeftLeg 12.746610 -0.000000 -0.000000
LeftFoot -22.475729 26.529135 -15.860129
LeftToeBase 2.057452 -0.000000 -0.000000
Spine 7.373444 -9.080860 9.893405
RightShoulder -3.353605 -34.343961 -4.612308
RightArm 20.395160 -18.071497 60.260966
RightForeArm -187.000117 -0.000000 105.336217
RightHand 94.673561 -0.000000 -167.348758
RightHandThumb1 -24.326973 -0.000000 -32.862282
LeftShoulder -20.820470 33.046100 6.306724
LeftArm 59.864936 -27.185434 -62.696543
LeftForeArm 59.896331 -0.000000 123.266474
LeftHand -26.542778 0.000000 -21.394678
LeftHandThumb1 -26.253704 0.000000 33.147579
Head 7.705363 27.216025 30.995879
